<svg width="32" height="32" viewBox="0 0 32 32" fill="none" xmlns="http://www.w3.org/2000/svg">
<path d="M25.9082 21.346V21.3462C25.9082 24.506 21.6264 27.0675 16.3444 27.0675C11.7782 27.0675 7.96056 25.1529 7.00963 22.5926L6.59494 22.493V21.7747L6.40919 21.6914C5.986 21.5015 5.986 21.1907 6.40919 21.0009L6.59494 20.9175V14.5476L12.356 16.1451C13.57 15.8114 14.9207 15.625 16.3444 15.625C17.8562 15.625 19.2856 15.8351 20.5566 16.2087L25.9082 14.9226V21.346Z" fill="#046855"/>
<path d="M7.66189 24.3183L7.98395 27.8239C8.04502 28.4884 7.55577 29.0767 6.89114 29.1377C6.22652 29.1988 5.63833 28.7096 5.57727 28.0449C5.57092 27.9714 5.57092 27.8974 5.57727 27.8238L5.89933 24.3182C5.94402 23.8315 6.37483 23.4732 6.86158 23.5179C7.29333 23.5576 7.62395 23.9015 7.66189 24.3183Z" fill="#F28705"/>
<path d="M14.7692 21.5992L0.657605 13.7669C-0.0193321 13.3912 -0.0193321 12.7764 0.657605 12.4006L14.7692 4.56843C15.4461 4.19268 16.5539 4.19268 17.2309 4.56843L31.3424 12.4007C32.0194 12.7764 32.0194 13.3912 31.3424 13.767L17.2309 21.5992C16.5539 21.9749 15.4462 21.9749 14.7692 21.5992Z" fill="url(#paint0_linear_4001_270)"/>
<path d="M6.78072 24.739C5.77934 24.739 4.96753 23.9272 4.96753 22.9257V22.4568C4.96753 21.4554 5.77934 20.6436 6.78072 20.6436C7.78209 20.6436 8.5939 21.4554 8.5939 22.4568V22.9257C8.5939 23.9272 7.78209 24.739 6.78072 24.739Z" fill="#FFD592"/>
<path d="M6.78077 23.0539C6.26002 23.0539 5.83789 22.6318 5.83789 22.111V17.8216C5.83789 17.4865 6.01577 17.1766 6.30508 17.0075L15.5243 11.6204C15.974 11.3577 16.5514 11.5092 16.8141 11.9588C17.0768 12.4084 16.9253 12.9859 16.4758 13.2486L7.72364 18.3627V22.1111C7.72364 22.6318 7.30145 23.0539 6.78077 23.0539Z" fill="#F28705"/>
<path d="M18.1457 12.4343C18.1457 13.266 17.1851 13.9402 16 13.9402C14.8149 13.9402 13.8542 13.266 13.8542 12.4343C13.8542 11.6027 14.8149 10.9285 16 10.9285C17.1851 10.9285 18.1457 11.6027 18.1457 12.4343Z" fill="#003B33"/>
<defs>
<linearGradient id="paint0_linear_4001_270" x1="0.149902" y1="13.0838" x2="31.8501" y2="13.0838" gradientUnits="userSpaceOnUse">
<stop stop-color="#15BFA0" stop-opacity="0.9"/>
<stop offset="0.5" stop-color="#12A68B" stop-opacity="0.85"/>
<stop offset="1" stop-color="#0D9589" stop-opacity="0.8"/>
</linearGradient>
</defs>
</svg>
