<svg width="24" height="29" viewBox="0 0 24 29" fill="none" xmlns="http://www.w3.org/2000/svg">
<path d="M21.4141 10.0312C21.98 9.99969 22.4573 10.1738 22.876 10.5654C23.2979 10.9602 23.5006 11.4278 23.5 11.999V21.5332C23.5 22.1232 23.3112 22.6058 22.9346 23.0098C22.5592 23.4123 22.092 23.6319 21.5029 23.668L21.4795 23.6689L21.4561 23.6729C19.9994 23.9005 18.5871 24.276 17.2207 24.7998C15.8461 25.3267 14.5631 26.0261 13.3721 26.8965L13.3604 26.9043L13.3496 26.9131C13.1462 27.0795 12.9347 27.1994 12.7148 27.2783C12.4945 27.3574 12.2571 27.3996 11.999 27.4004C11.7422 27.4011 11.5053 27.3597 11.2861 27.2803C11.0658 27.2004 10.8541 27.0797 10.6504 26.9131L10.6396 26.9043L10.6279 26.8965L10.1777 26.5781C9.11525 25.8539 7.98222 25.261 6.7793 24.7998C5.41286 24.276 4.00063 23.9005 2.54395 23.6729L2.52051 23.6689L2.49805 23.668L2.28223 23.6455C1.79283 23.5733 1.39392 23.3613 1.06543 23.0098C0.689154 22.607 0.5 22.1243 0.5 21.5332V12C0.5 11.4283 0.703648 10.9605 1.12598 10.5654C1.54451 10.174 2.02057 9.99996 2.58496 10.0312C4.28174 10.2916 5.89753 10.7928 7.43359 11.5342C8.97697 12.2791 10.3852 13.245 11.6592 14.4326L12 14.75L12.3408 14.4326C13.6158 13.2441 15.0249 12.2781 16.5684 11.5332C18.1041 10.792 19.7186 10.2908 21.4141 10.0312ZM12 0.5C13.3329 0.5 14.4617 0.968607 15.4131 1.91992C16.3644 2.87127 16.8329 4.00015 16.833 5.33301C16.833 6.66594 16.3644 7.7947 15.4131 8.74609C14.4617 9.69752 13.333 10.167 12 10.167C10.667 10.167 9.53834 9.69752 8.58691 8.74609C7.6356 7.7947 7.16699 6.66594 7.16699 5.33301C7.16707 4.00015 7.63557 2.87127 8.58691 1.91992C9.5383 0.968607 10.6671 0.5 12 0.5Z" fill="#046855" stroke="#046855"/>
</svg>
