<svg width="32" height="32" viewBox="0 0 32 32" fill="none" xmlns="http://www.w3.org/2000/svg">
<g clip-path="url(#clip0_1092_408)">
<path d="M29.8902 4.46582H25.6704L27.7803 26.9713H29.8902C31.0554 26.9713 32 26.0266 32 24.8614V6.5757C32.0001 5.41051 31.0554 4.46582 29.8902 4.46582Z" fill="#006557"/>
<path d="M13.1868 4.39551L16 29.0109C17.1653 29.0109 18.1098 28.0663 18.1098 26.901H27.7801V4.39551H13.1868Z" fill="#006557"/>
<path d="M2.10987 4.39551C0.944687 4.39551 0 5.34013 0 6.50538V24.7911C0 25.9563 0.944687 26.9009 2.10987 26.9009H13.8901C13.8901 28.0663 14.8348 29.0108 16 29.0108V4.39551H2.10987Z" fill="#00A991"/>
<path d="M26.3735 21.2747L27.0768 24.7911H29.89V22.6812L26.3735 21.2747Z" fill="#A99E9B"/>
<path d="M14.5935 21.2747L16.0001 26.4085V26.901C16.0001 25.7406 16.9495 24.7912 18.1099 24.7912H26.9715V21.2747L14.5935 21.2747Z" fill="#C1B8B5"/>
<path d="M2.10986 22.6814V24.7913H13.8901C15.0506 24.7913 16 25.7407 16 26.9012V20.5715L2.10986 22.6814Z" fill="#D8D1D0"/>
<path d="M24.4417 29.7142L26.111 29.0109L27.7803 29.7142V21.2747H24.4417V29.7142Z" fill="#046855"/>
<path d="M27.0769 2.28564L24.967 12.4835L27.0769 22.6813H29.8901V2.28564H27.0769Z" fill="#C1B8B5"/>
<path d="M18.1099 2.28564C16.9494 2.28564 16 3.23514 16 4.39558L13.8901 14.5934L16 24.2988V24.7911C16 23.6307 16.9494 22.6813 18.1099 22.6813H27.0769V15.4723L25.6703 10.9889L27.0769 6.50546V2.28564H18.1099Z" fill="#D8D1D0"/>
<path d="M13.8901 2.28564H2.10986V22.6813H13.8901C15.0506 22.6813 16 23.6307 16 24.7911V4.39558C16 3.23514 15.0506 2.28564 13.8901 2.28564Z" fill="#F0EBEA"/>
<path d="M27.077 6.50562H18.8132V15.4727H27.077V6.50562Z" fill="white"/>
<path d="M13.1868 18.9891H4.92301C4.63163 18.9891 4.39551 18.753 4.39551 18.4616C4.39551 18.1702 4.63163 17.9341 4.92301 17.9341H13.1868C13.4781 17.9341 13.7143 18.1702 13.7143 18.4616C13.7143 18.753 13.4781 18.9891 13.1868 18.9891Z" fill="#7F7774"/>
<path d="M13.1868 16.0001H4.92301C4.63163 16.0001 4.39551 15.7639 4.39551 15.4726C4.39551 15.1812 4.63163 14.9451 4.92301 14.9451H13.1868C13.4781 14.9451 13.7143 15.1812 13.7143 15.4726C13.7143 15.7639 13.4781 16.0001 13.1868 16.0001Z" fill="#7F7774"/>
<path d="M13.1868 13.0111H4.92301C4.63163 13.0111 4.39551 12.7749 4.39551 12.4836C4.39551 12.1922 4.63163 11.9561 4.92301 11.9561H13.1868C13.4781 11.9561 13.7143 12.1922 13.7143 12.4836C13.7143 12.7749 13.4781 13.0111 13.1868 13.0111Z" fill="#7F7774"/>
<path d="M13.1868 10.022H4.92301C4.63163 10.022 4.39551 9.78592 4.39551 9.49454C4.39551 9.20317 4.63163 8.96704 4.92301 8.96704H13.1868C13.4781 8.96704 13.7143 9.20317 13.7143 9.49454C13.7143 9.78592 13.4781 10.022 13.1868 10.022Z" fill="#7F7774"/>
<path d="M13.1868 7.03303H4.92301C4.63163 7.03303 4.39551 6.7969 4.39551 6.50553C4.39551 6.21415 4.63163 5.97803 4.92301 5.97803H13.1868C13.4781 5.97803 13.7143 6.21415 13.7143 6.50553C13.7143 6.79696 13.4781 7.03303 13.1868 7.03303Z" fill="#7F7774"/>
<path d="M27.0769 18.9891H18.8131C18.5218 18.9891 18.2856 18.753 18.2856 18.4616C18.2856 18.1702 18.5218 17.9341 18.8131 17.9341H27.0769C27.3683 17.9341 27.6044 18.1702 27.6044 18.4616C27.6043 18.753 27.3683 18.9891 27.0769 18.9891Z" fill="#554F4E"/>
</g>
<defs>
<clipPath id="clip0_1092_408">
<rect width="32" height="32" fill="white"/>
</clipPath>
</defs>
</svg>
