<svg width="26" height="32" viewBox="0 0 26 32" fill="none" xmlns="http://www.w3.org/2000/svg">
<path d="M11.6059 2.78099L11.134 5.55242C9.56076 5.55225 8.01945 5.99645 6.68757 6.83387C5.3557 7.67129 4.28744 8.86787 3.60582 10.2858C2.9242 11.7037 2.65693 13.2854 2.83481 14.8485C3.01268 16.4117 3.62845 17.8929 4.61122 19.1214C4.73093 19.2704 5.73315 20.3088 5.88766 20.4772C7.27547 21.9861 8.12875 23.367 8.31249 25.0401H13.9556C14.1393 23.3683 14.9926 21.9875 16.3776 20.4786C16.5349 20.3088 17.533 19.2731 17.6541 19.1242C18.8429 17.6445 19.4893 15.8024 19.4859 13.9043L22.2559 13.431C22.2643 13.5888 22.2689 13.7465 22.2699 13.9043C22.2731 16.4356 21.4106 18.892 19.8255 20.8656C18.9625 21.9416 16.7019 23.6481 16.7019 25.7361V29.216C16.7019 29.9544 16.4086 30.6625 15.8865 31.1846C15.3644 31.7067 14.6563 32 13.918 32H8.35007C7.61172 32 6.90361 31.7067 6.38152 31.1846C5.85943 30.6625 5.56612 29.9544 5.56612 29.216V25.7361C5.56612 23.6481 3.30415 21.9402 2.43973 20.8628C1.10454 19.1936 0.277979 17.1753 0.0587371 15.0491C-0.160505 12.9228 0.236839 10.7784 1.20333 8.87182C2.16981 6.96527 3.6646 5.37716 5.5092 4.29712C7.35381 3.21708 9.47028 2.69076 11.6059 2.78099ZM8.35007 29.216H13.918V27.8241H8.35007V29.216Z" fill="url(#paint0_linear_4001_2177)"/>
<path fill-rule="evenodd" clip-rule="evenodd" d="M19.0914 0.120568C18.9748 0.199153 18.8844 0.310759 18.8317 0.441078L18.4781 1.29297C17.8863 2.73298 16.7649 3.89126 15.3448 4.52932L14.3453 4.97475C14.2171 5.03371 14.1086 5.12819 14.0325 5.24698C13.9563 5.36577 13.9159 5.5039 13.9159 5.64499C13.9159 5.78607 13.9563 5.9242 14.0325 6.04299C14.1086 6.16179 14.2171 6.25626 14.3453 6.31522L15.4032 6.78571C16.789 7.40676 17.8916 8.52478 18.4934 9.91905L18.8358 10.7055C18.8894 10.8338 18.9796 10.9434 19.0953 11.0205C19.211 11.0976 19.3469 11.1387 19.4859 11.1387C19.6249 11.1387 19.7608 11.0976 19.8765 11.0205C19.9922 10.9434 20.0824 10.8338 20.1359 10.7055L20.4798 9.91905C21.0809 8.52527 22.1824 7.40733 23.5672 6.78571L24.6251 6.31522C24.7529 6.25609 24.8611 6.16163 24.9369 6.04299C25.0127 5.92435 25.053 5.78649 25.053 5.64568C25.053 5.50488 25.0127 5.36702 24.9369 5.24838C24.8611 5.12973 24.7529 5.03527 24.6251 4.97614L23.6256 4.53071C22.2058 3.89203 21.0849 2.73325 20.4937 1.29297L20.1401 0.441078C20.0874 0.310759 19.997 0.199153 19.8804 0.120568C19.7638 0.0419835 19.6265 0 19.4859 0C19.3453 0 19.2079 0.0419835 19.0914 0.120568Z" fill="#F28705"/>
<defs>
<linearGradient id="paint0_linear_4001_2177" x1="0" y1="16" x2="25.053" y2="16" gradientUnits="userSpaceOnUse">
<stop stop-color="#15BFA0" stop-opacity="0.9"/>
<stop offset="0.5" stop-color="#12A68B" stop-opacity="0.85"/>
<stop offset="1" stop-color="#0D9589" stop-opacity="0.8"/>
</linearGradient>
</defs>
</svg>
