<svg width="136" height="79" viewBox="0 0 136 79" fill="none" xmlns="http://www.w3.org/2000/svg">
<path d="M74.1041 72.1672C73.1465 72.0752 73.1618 72.0092 74.5075 70.4243C75.375 69.4026 75.7566 68.7034 76.1033 67.4998C77.1845 63.747 78.6503 61.5284 80.9608 60.1476C83.4968 58.6322 82.6189 58.7145 97.6208 58.5864C113.198 58.4534 112.43 58.5488 114.302 56.516C117.473 53.0742 115.96 47.8252 111.421 46.5196C110.32 46.2029 108.872 46.162 100.716 46.2171L91.2841 46.2808L90.7135 46.8491C90.191 47.3696 90.1334 47.6258 90.0303 49.8882C89.8748 53.3012 89.914 53.2684 86.0874 53.1938C81.5722 53.1058 78.8593 54.0984 76.3695 56.7494L75.1781 58.0179L75.2457 50.0051C75.3041 43.0923 75.3667 41.8528 75.7019 40.9765C77.1756 37.1243 79.224 34.8999 82.6551 33.4258C83.6189 33.0117 84.4402 32.9777 96.2608 32.8615C110.265 32.7239 109.589 32.8012 111.458 31.1234C114.893 28.0395 113.771 22.2521 109.454 20.7873C107.91 20.2634 92.2632 20.2657 91.245 20.79C90.2645 21.295 89.9142 22.3254 89.9142 24.705C89.9142 27.4258 89.9024 27.4336 85.8397 27.4336C81.125 27.4336 78.8529 28.2691 76.2514 30.9593L75.1862 32.0608L75.1835 19.8434C75.1812 9.85358 75.2367 7.57989 75.4871 7.37289C75.8395 7.08167 111.145 6.94169 112.694 7.22538C126.482 9.75091 132.756 25.2219 124.52 36.3877C123.018 38.4243 122.997 38.2832 125.107 40.2885C127.287 42.3601 128.762 44.6399 129.857 47.635C130.852 50.3521 130.961 55.5587 130.08 58.2436C127.692 65.5266 122.336 70.4199 115.291 71.7578C113.542 72.0898 77.0742 72.4523 74.1041 72.1672ZM34.1919 48.4776C34.2634 48.3136 36.1459 44.6459 38.4399 40.2009C39.0124 39.0915 39.5828 38.1544 39.7075 38.1184C39.883 38.0678 44.8827 47.4108 45.223 48.4255C45.2719 48.5713 43.3269 48.6508 39.7075 48.6508C36.6324 48.6508 34.1504 48.5728 34.1919 48.4776Z" fill="#F28705"/>
<path d="M11.0344 72.1968C7.39358 70.8915 5.10034 68.1688 5.10034 64.2127V63.579L5.31284 62.3116L5.48109 61.7498L8.37331 56.0461C9.96404 52.909 13.3859 46.2287 15.9774 41.2009C18.5689 36.1731 22.2012 29.1139 24.0493 25.5138C31.5167 10.9663 31.6493 10.7291 33.1689 9.20055C37.0511 5.2952 42.6109 5.33746 46.4978 9.30188C47.7296 10.5582 47.7359 10.5696 55.2367 25.0624C56.2004 26.9245 58.0868 30.5811 59.4287 33.1881C60.7706 35.7951 62.6568 39.4516 63.6202 41.3138C64.5837 43.1759 66.3681 46.6294 67.5856 48.9881C68.803 51.3468 70.6138 54.8435 71.6094 56.7585C73.7988 60.9696 74.2744 62.282 74.2744 64.1109C74.2744 70.0306 68.0934 74.2368 62.9095 71.8448C59.7666 70.3945 59.8727 70.5634 50.1172 51.4709C47.6433 46.6294 44.4263 40.333 42.9682 37.479C40.2309 32.1214 39.7805 31.4838 39.299 32.2852C38.708 33.2689 35.7683 38.9179 32.7801 44.8124C31.0494 48.2263 28.5263 53.1525 27.1732 55.7595C25.82 58.3665 23.8028 62.2687 22.6903 64.4311C20.2951 69.087 19.0785 70.5793 16.7459 71.7228C14.9357 72.6102 12.7042 72.7954 11.0344 72.1968ZM38.4586 70.9909C37.939 70.1051 37.5824 69.312 37.6661 69.2285C37.7498 69.145 38.7279 69.0411 39.8397 68.9978C42.2519 68.9036 42.3033 68.9976 40.993 71.1058C39.8474 72.949 39.6004 72.9378 38.4586 70.9909ZM35.974 66.8295C35.2274 65.6266 35.3722 65.5781 39.7078 65.5781C44.0039 65.5781 44.1758 65.6319 43.5093 66.7693L43.083 67.4966L39.7742 67.559L36.4654 67.6213L35.974 66.8295ZM34.1946 62.3465L33.4659 61.5978L33.5268 56.3086L33.5878 51.0195H34.9478H36.3078L36.3685 56.6401C36.4224 61.6314 36.3867 62.3075 36.05 62.678C35.5019 63.281 35.0205 63.195 34.1946 62.3465ZM38.8119 62.4293L38.1713 61.7634L38.2174 56.6543C38.2729 50.5052 38.1727 50.8677 39.7927 50.9526L41.0678 51.0195L41.1286 56.4199L41.1895 61.8204L40.5762 62.4578C39.8067 63.2576 39.6056 63.2543 38.8119 62.4293ZM43.4603 62.4955C43.0053 61.9196 42.9889 61.6799 43.0471 56.4576L43.1078 51.0195L44.5174 50.9525C46.2818 50.8686 46.1852 50.5117 46.1069 56.828L46.0461 61.7336L45.2569 62.4052C44.2785 63.2379 44.0555 63.2491 43.4603 62.4955Z" fill="#007F6D"/>
</svg>
